<?xml version="1.0" standalone="no"?>
<!DOCTYPE svg PUBLIC "-//W3C//DTD SVG 20010904//EN"
 "http://www.w3.org/TR/2001/REC-SVG-20010904/DTD/svg10.dtd">
<svg version="1.0" xmlns="http://www.w3.org/2000/svg"
 width="580.000000pt" height="580.000000pt" viewBox="0 0 580.000000 580.000000"
 preserveAspectRatio="xMidYMid meet">
<metadata>
Created by potrace 1.14, written by Peter Selinger 2001-2017
</metadata>
<g transform="translate(0.000000,580.000000) scale(0.100000,-0.100000)"
fill="#000000" stroke="none">
<path d="M4225 4235 c-262 -41 -474 -148 -677 -344 -128 -122 -215 -238 -283
-376 -104 -211 -138 -363 -139 -615 0 -258 37 -424 139 -629 282 -563 919
-857 1470 -680 223 71 427 254 549 489 56 109 84 199 97 319 13 118 5 151 -40
151 -16 0 -33 -4 -36 -10 -3 -5 -11 -51 -16 -101 -28 -253 -139 -461 -321
-604 -88 -70 -226 -137 -328 -160 -94 -21 -260 -22 -356 -1 -231 48 -483 226
-591 417 -59 104 -121 273 -152 414 -24 113 -26 136 -25 390 0 243 2 281 22
375 47 217 135 420 236 541 99 121 304 251 462 295 92 25 286 30 376 10 323
-72 565 -373 644 -801 21 -118 25 -125 75 -125 33 0 41 4 49 26 6 15 10 217
10 504 0 287 -4 489 -10 504 -12 33 -43 34 -73 3 -12 -13 -64 -85 -115 -160
l-93 -138 -86 80 c-122 115 -295 200 -467 230 -77 14 -220 12 -321 -4z"/>
<path d="M430 4133 c0 -5 -16 -192 -35 -417 -19 -225 -35 -410 -35 -412 0 -2
20 -4 45 -4 51 0 46 -13 65 175 20 201 64 344 130 419 35 39 116 85 185 105
60 18 315 31 445 24 108 -6 117 -8 142 -34 l28 -27 0 -1056 c0 -646 -4 -1064
-10 -1080 -22 -60 -115 -84 -352 -93 l-178 -6 0 -51 0 -51 705 0 705 0 0 53 0
52 -102 0 c-218 1 -375 28 -414 71 -18 20 -19 62 -22 1071 -1 693 1 1062 8
1088 16 59 39 64 280 63 292 -2 392 -23 484 -105 56 -49 88 -108 121 -225 20
-73 55 -309 55 -375 0 -15 9 -18 45 -18 40 0 45 3 45 23 0 34 -61 769 -66 795
l-4 22 -1135 0 c-624 0 -1135 -3 -1135 -7z"/>
</g>
</svg>
